<svg xmlns="http://www.w3.org/2000/svg" viewBox="0 0 1080 1080"><defs><style>.cls-1{fill:#f2f2f2;}.cls-2{fill:#1a56ff;}.cls-3{font-size:115px;font-family:Microsoft-Yi-Baiti, Microsoft Yi Baiti;font-style:italic;}</style></defs><g id="Layer_3" data-name="Layer 3"><circle class="cls-1" cx="540" cy="540" r="539.21"/></g><g id="Layer_1" data-name="Layer 1"><polygon class="cls-2" points="203.86 411.69 221.4 448.54 242.45 411.69 242.45 269.59 223.15 241.52 203.86 271.34 203.86 411.69"/><polygon class="cls-2" points="203.86 487.36 221.4 450.52 242.45 487.36 242.45 629.47 223.15 657.53 203.86 627.71 203.86 487.36"/><polygon class="cls-2" points="466.86 411.69 484.4 448.54 505.45 411.69 505.45 269.59 486.15 241.52 466.86 271.34 466.86 411.69"/><polygon class="cls-2" points="466.86 487.36 484.4 450.52 505.45 487.36 505.45 629.47 486.15 657.53 466.86 627.71 466.86 487.36"/><polygon class="cls-2" points="253.02 221.18 230.41 236.82 248.08 262.9 461.63 262.9 480.87 236.82 457.12 218.61 253.02 221.18"/><polygon class="cls-2" points="253.02 677.34 230.41 661.69 248.08 635.61 461.63 635.61 480.87 661.69 457.12 679.9 253.02 677.34"/><polygon class="cls-2" points="391.43 573.65 373.97 523.6 425.22 542.91 551.8 682.05 559.91 724.91 516.45 711.07 391.43 573.65"/><polygon class="cls-2" points="574.55 415.6 592.09 455.96 613.14 415.6 613.14 259.93 593.85 229.18 574.55 261.86 574.55 415.6"/><polygon class="cls-2" points="574.55 494.78 592.09 457.94 613.14 494.78 613.14 636.89 593.85 664.96 574.55 635.13 574.55 494.78"/><polygon class="cls-2" points="837.55 494.78 855.09 457.94 876.14 494.78 876.14 636.89 856.85 664.96 837.55 635.13 837.55 494.78"/><polygon class="cls-2" points="623.71 684.76 601.1 669.11 618.77 643.04 832.32 643.04 851.56 669.11 827.81 687.32 623.71 684.76"/><text class="cls-3" transform="translate(212.96 831.5)">QUICK-BINARY</text><polygon class="cls-2" points="634.88 475.26 603.77 457.71 634.88 436.66 821.21 436.66 842.88 455.96 819.18 475.26 634.88 475.26"/></g></svg>